<svg width="20" height="20" viewBox="0 0 20 20" fill="none" xmlns="http://www.w3.org/2000/svg">
<path d="M9.89999 7.61669C10.9667 7.66669 11.2417 8.57502 11.2583 9.00002H12.75C12.6833 7.35002 11.5083 6.34169 9.87499 6.34169C8.03332 6.34169 6.66666 7.50002 6.66666 10.1167C6.66666 11.7334 7.44166 13.65 9.86666 13.65C11.7167 13.65 12.7083 12.275 12.7333 11.1917H11.2417C11.2167 11.6834 10.8667 12.3417 9.88332 12.3917C8.79166 12.3584 8.33332 11.5084 8.33332 10.1167C8.33332 7.70835 9.39999 7.63335 9.89999 7.61669ZM9.99999 1.66669C5.39999 1.66669 1.66666 5.40002 1.66666 10C1.66666 14.6 5.39999 18.3334 9.99999 18.3334C14.6 18.3334 18.3333 14.6 18.3333 10C18.3333 5.40002 14.6 1.66669 9.99999 1.66669ZM9.99999 16.6667C6.32499 16.6667 3.33332 13.675 3.33332 10C3.33332 6.32502 6.32499 3.33335 9.99999 3.33335C13.675 3.33335 16.6667 6.32502 16.6667 10C16.6667 13.675 13.675 16.6667 9.99999 16.6667Z" fill="white"/>
</svg>
