<svg width="36" height="35" viewBox="0 0 36 35" fill="none" xmlns="http://www.w3.org/2000/svg">
<g clip-path="url(#clip0)">
<path d="M22.0872 9.19042C21.0109 9.14083 20.6872 9.13208 17.9615 9.13208C15.2359 9.13208 14.9136 9.14229 13.8374 9.19042C11.068 9.31729 9.77884 10.6283 9.65196 13.3758C9.60384 14.4521 9.59217 14.7744 9.59217 17.5C9.59217 20.2256 9.60384 20.5479 9.65196 21.6256C9.77884 24.3658 11.0622 25.6842 13.8374 25.811C14.9122 25.8592 15.2359 25.8708 17.9615 25.8708C20.6886 25.8708 21.0109 25.8606 22.0872 25.811C24.8565 25.6856 26.1443 24.3702 26.2726 21.6256C26.3207 20.5494 26.3309 20.2256 26.3309 17.5C26.3309 14.7744 26.3207 14.4521 26.2726 13.3758C26.1443 10.6298 24.8536 9.31729 22.0872 9.19042V9.19042ZM17.9615 22.7427C15.0668 22.7427 12.7188 20.3963 12.7188 17.5C12.7188 14.6052 15.0668 12.2588 17.9615 12.2588C20.8563 12.2588 23.2043 14.6052 23.2043 17.5C23.2043 20.3948 20.8563 22.7427 17.9615 22.7427ZM23.4113 13.2767C22.7347 13.2767 22.1863 12.7283 22.1863 12.0517C22.1863 11.375 22.7347 10.8267 23.4113 10.8267C24.088 10.8267 24.6363 11.375 24.6363 12.0517C24.6363 12.7269 24.088 13.2767 23.4113 13.2767V13.2767ZM21.3638 17.5C21.3638 19.3798 19.8399 20.9023 17.9615 20.9023C16.0832 20.9023 14.5593 19.3798 14.5593 17.5C14.5593 15.6202 16.0832 14.0977 17.9615 14.0977C19.8399 14.0977 21.3638 15.6202 21.3638 17.5ZM17.9615 0C8.29717 0 0.461548 7.83563 0.461548 17.5C0.461548 27.1644 8.29717 35 17.9615 35C27.6259 35 35.4615 27.1644 35.4615 17.5C35.4615 7.83563 27.6259 0 17.9615 0ZM28.1086 21.7088C27.9409 25.4202 25.8745 27.4765 22.1718 27.6471C21.0824 27.6967 20.7338 27.7083 17.9615 27.7083C15.1893 27.7083 14.8422 27.6967 13.7528 27.6471C10.0428 27.4765 7.98509 25.4173 7.81446 21.7088C7.76488 20.6208 7.75321 20.2723 7.75321 17.5C7.75321 14.7277 7.76488 14.3806 7.81446 13.2913C7.98509 9.58125 10.0443 7.52354 13.7528 7.35438C14.8422 7.30333 15.1893 7.29167 17.9615 7.29167C20.7338 7.29167 21.0824 7.30333 22.1718 7.35438C25.8832 7.525 27.9424 9.58854 28.1086 13.2913C28.1582 14.3806 28.1699 14.7277 28.1699 17.5C28.1699 20.2723 28.1582 20.6208 28.1086 21.7088Z" fill="white"/>
</g>
<defs>
<clipPath id="clip0">
<rect width="35" height="35" fill="white" transform="translate(0.461548)"/>
</clipPath>
</defs>
</svg>
