<svg width="35" height="35" viewBox="0 0 35 35" fill="none" xmlns="http://www.w3.org/2000/svg">
<path d="M17.5 0C7.83563 0 0 7.83563 0 17.5C0 27.1644 7.83563 35 17.5 35C27.1644 35 35 27.1644 35 17.5C35 7.83563 27.1644 0 17.5 0ZM23.9765 24.6342C20.911 24.8442 14.0831 24.8442 11.0221 24.6342C7.70292 24.4067 7.31646 22.7821 7.29167 17.5C7.31646 12.2077 7.70729 10.5933 11.0221 10.3658C14.0831 10.1558 20.9125 10.1558 23.9765 10.3658C27.2971 10.5933 27.6821 12.2179 27.7083 17.5C27.6821 22.7923 27.2927 24.4067 23.9765 24.6342ZM14.5833 14.0846L21.754 17.4942L14.5833 20.9154V14.0846V14.0846Z" fill="white"/>
</svg>
