<svg width="35" height="35" viewBox="0 0 35 35" fill="none" xmlns="http://www.w3.org/2000/svg">
<path d="M17.5 0C7.83563 0 0 7.83563 0 17.5C0 27.1644 7.83563 35 17.5 35C27.1644 35 35 27.1644 35 17.5C35 7.83563 27.1644 0 17.5 0ZM26.3463 14.0656C26.6131 19.9573 22.2192 26.5256 14.4404 26.5256C12.075 26.5256 9.87438 25.8315 8.02083 24.6429C10.2433 24.9054 12.4615 24.2871 14.2217 22.909C12.39 22.8754 10.8427 21.6635 10.3075 19.9996C10.9652 20.125 11.6127 20.0885 12.2004 19.9281C10.1865 19.5227 8.79521 17.7085 8.84042 15.7675C9.40625 16.081 10.0508 16.2692 10.7377 16.291C8.8725 15.0442 8.34458 12.581 9.44125 10.6983C11.5063 13.2329 14.5935 14.8998 18.0746 15.0748C17.4635 12.4556 19.4513 9.93125 22.1565 9.93125C23.3596 9.93125 24.449 10.4402 25.2131 11.254C26.1669 11.0673 27.0652 10.7173 27.8731 10.2375C27.5596 11.216 26.896 12.0356 26.0313 12.5548C26.8785 12.4527 27.6865 12.2281 28.436 11.8942C27.876 12.7371 27.1673 13.475 26.3463 14.0656V14.0656Z" fill="white"/>
</svg>
