<svg width="24" height="20" viewBox="0 0 24 20" fill="none" xmlns="http://www.w3.org/2000/svg">
<g clip-path="url(#clip0)">
<path d="M22.5984 3.96777L21.9595 3.43539C16.4633 -1.14485 7.53721 -1.14516 2.0405 3.43539L1.40165 3.96777C1.13989 4.1859 1.12538 4.53559 1.3684 4.76824L4.56223 7.82591C4.7921 8.046 5.18112 8.09194 5.47528 7.93384L8.90202 6.09229C9.1202 5.97505 9.24333 5.76729 9.22239 5.55166L9.11377 4.43205C10.9808 3.92163 13.017 3.92135 14.8848 4.43162L14.777 5.55186C14.7563 5.76737 14.8794 5.97493 15.0974 6.0921L18.5248 7.9338C18.819 8.0919 19.2079 8.04596 19.4378 7.82587L22.6316 4.76821C22.8747 4.53559 22.8602 4.18586 22.5984 3.96777V3.96777ZM18.7756 6.67171L16.215 5.29573L16.3321 4.07808C16.357 3.81996 16.1759 3.57878 15.8865 3.48446C13.4414 2.68778 10.6552 2.65581 8.11159 3.48513C7.82207 3.57952 7.64104 3.8209 7.66612 4.0791L7.78418 5.29604L5.22437 6.67167L2.86259 4.41056L3.03667 4.26549C7.98244 0.144055 16.0173 0.14382 20.9634 4.26549L21.1374 4.41056L18.7756 6.67171Z" fill="black"/>
<path d="M20.9783 11.6788L17.5084 10.39L16.133 8.28268C16.0097 8.09374 15.7723 7.97615 15.5142 7.97615H14.1133V6.99788C14.1133 6.6737 13.7979 6.41088 13.4089 6.41088C13.0199 6.41088 12.7045 6.6737 12.7045 6.99788V7.97618H11.2957V6.99788C11.2957 6.6737 10.9803 6.41088 10.5913 6.41088C10.2023 6.41088 9.88687 6.6737 9.88687 6.99788V7.97618H8.50402C8.2472 7.97618 8.0107 8.09269 7.88687 8.28021L6.49412 10.3894L3.02196 11.6788C2.76791 11.7732 2.60425 11.9832 2.60425 12.215V18.6303C2.60425 18.9545 2.91963 19.2173 3.30865 19.2173H4.20485V19.413C4.20485 19.7372 4.52023 20 4.90925 20C5.29827 20 5.61366 19.7372 5.61366 19.413V19.2173H18.3865V19.413C18.3865 19.7372 18.7019 20 19.0909 20C19.4799 20 19.7953 19.7372 19.7953 19.413V19.2173H20.6916C21.0806 19.2173 21.396 18.9545 21.396 18.6303V12.215C21.3959 11.9832 21.2323 11.7732 20.9783 11.6788V11.6788ZM19.9871 18.0433H4.01306V12.596L7.2838 11.3814C7.42412 11.3293 7.54016 11.2404 7.61422 11.1282L8.92037 9.15016H15.0954L16.3848 11.1257C16.4588 11.239 16.5755 11.3288 16.7168 11.3814L19.9871 12.596V18.0433H19.9871Z" fill="black"/>
<path d="M12.0001 10.9991C10.058 10.9991 8.47803 12.3158 8.47803 13.9341C8.47803 15.5525 10.058 16.8692 12.0001 16.8692C13.9421 16.8692 15.5221 15.5525 15.5221 13.9341C15.5221 12.3158 13.9421 10.9991 12.0001 10.9991ZM12.0001 15.6951C10.8348 15.6951 9.88684 14.9052 9.88684 13.9341C9.88684 12.9631 10.8348 12.1731 12.0001 12.1731C13.1653 12.1731 14.1133 12.9631 14.1133 13.9341C14.1133 14.9052 13.1653 15.6951 12.0001 15.6951Z" fill="black"/>
<path d="M12.0001 14.5213C12.3891 14.5213 12.7045 14.2585 12.7045 13.9343C12.7045 13.6101 12.3891 13.3473 12.0001 13.3473C11.611 13.3473 11.2957 13.6101 11.2957 13.9343C11.2957 14.2585 11.611 14.5213 12.0001 14.5213Z" fill="black"/>
</g>
<defs>
<clipPath id="clip0">
<rect width="24" height="20" fill="white"/>
</clipPath>
</defs>
</svg>
